<svg width="43" height="44" viewBox="0 0 43 44" fill="none" xmlns="http://www.w3.org/2000/svg">
<path d="M4.21427 35.0781C4.21427 37.5273 5.849 39.5312 7.85713 39.5312C8.29665 39.5216 8.72958 39.4247 9.12959 39.2463C9.52961 39.0679 9.88835 38.8119 10.184 38.4937C10.347 38.3159 10.545 38.1719 10.766 38.0705C10.9871 37.969 11.2268 37.912 11.4708 37.9029C11.7148 37.8938 11.9582 37.9328 12.1866 38.0176C12.4149 38.1024 12.6234 38.2312 12.7998 38.3964C12.9762 38.5615 13.1168 38.7597 13.2133 38.9791C13.3098 39.1985 13.3602 39.4346 13.3615 39.6734C13.3627 39.9122 13.3149 40.1489 13.2208 40.3693C13.1267 40.5896 12.9883 40.7893 12.8137 40.9562C12.1802 41.6243 11.4137 42.1585 10.5614 42.5261C9.70896 42.8937 8.78869 43.0869 7.85713 43.0938C3.8386 43.0938 0.571411 39.4979 0.571411 35.0781C0.571411 30.6584 3.8386 27.0625 7.85713 27.0625C8.78869 27.0694 9.70896 27.2626 10.5614 27.6302C11.4137 27.9978 12.1802 28.532 12.8137 29.2C12.9883 29.367 13.1267 29.5666 13.2208 29.787C13.3149 30.0074 13.3627 30.244 13.3615 30.4828C13.3602 30.7216 13.3098 30.9578 13.2133 31.1772C13.1168 31.3966 12.9762 31.5947 12.7998 31.7599C12.6234 31.9251 12.4149 32.0539 12.1866 32.1386C11.9582 32.2234 11.7148 32.2624 11.4708 32.2533C11.2268 32.2443 10.9871 32.1873 10.766 32.0858C10.545 31.9843 10.347 31.8404 10.184 31.6626C9.88835 31.3444 9.52961 31.0883 9.12959 30.9099C8.72958 30.7316 8.29665 30.6346 7.85713 30.625C5.849 30.625 4.21427 32.6289 4.21427 35.0781ZM22.3375 33.1432C21.4268 32.885 20.4842 32.62 19.9582 32.2882C19.6714 32.1079 19.6782 32.0656 19.7032 31.8652C19.7067 31.7033 19.7498 31.5445 19.829 31.4023C19.9083 31.2601 20.0213 31.1386 20.1586 31.048C21.2059 30.3534 23.6512 30.6629 24.6735 30.9234C25.1408 31.0435 25.6379 30.9772 26.0553 30.739C26.4726 30.5008 26.7761 30.1102 26.899 29.6531C27.0219 29.196 26.9541 28.71 26.7105 28.3018C26.4669 27.8936 26.0675 27.5968 25.6001 27.4766C25.1174 27.3542 20.8189 26.3144 18.1254 28.0912C17.555 28.465 17.0758 28.957 16.7216 29.5323C16.3675 30.1075 16.1472 30.752 16.0763 31.4199C15.621 34.9557 19.1819 35.9643 21.3129 36.5655C24.061 37.3425 24.3023 37.6609 24.2227 38.2554C24.1521 38.792 23.9358 38.9991 23.7354 39.1305C22.6881 39.8118 20.2815 39.4778 19.2843 39.2106C18.8213 39.0905 18.3285 39.1536 17.9127 39.3862C17.4969 39.6189 17.1916 40.0023 17.0628 40.4536C16.9341 40.9048 16.9923 41.3875 17.2248 41.797C17.4574 42.2066 17.8456 42.5101 18.3053 42.6418C19.4338 42.931 20.5949 43.0806 21.7615 43.0871C23.0888 43.0871 24.5619 42.8644 25.7436 42.094C26.3268 41.715 26.8169 41.2144 27.1787 40.628C27.5405 40.0417 27.7649 39.3843 27.8359 38.703C28.3482 34.8555 24.5869 33.78 22.3375 33.1432ZM36.9089 33.1432C35.9982 32.885 35.0556 32.62 34.5297 32.2882C34.2451 32.1079 34.2496 32.0656 34.2747 31.8652C34.2781 31.7033 34.3212 31.5445 34.4005 31.4023C34.4797 31.2601 34.5927 31.1386 34.73 31.048C35.7773 30.3534 38.2226 30.6629 39.2426 30.9234C39.71 31.0435 40.207 30.9772 40.6244 30.739C41.0418 30.5008 41.3453 30.1102 41.4682 29.6531C41.5911 29.196 41.5232 28.71 41.2796 28.3018C41.0361 27.8936 40.6366 27.5968 40.1693 27.4766C39.6889 27.3542 35.388 26.3144 32.6946 28.0912C32.1266 28.4665 31.6498 28.9591 31.2977 29.5342C30.9456 30.1094 30.7269 30.7531 30.6569 31.4199C30.2015 34.9557 33.7647 35.9643 35.8935 36.5655C38.6393 37.3425 38.8806 37.6609 38.8032 38.2554C38.7326 38.792 38.5163 38.9991 38.3137 39.1305C37.2664 39.8118 34.8621 39.4778 33.8648 39.2106C33.3987 39.0837 32.9 39.143 32.4786 39.3756C32.0572 39.6082 31.7475 39.9949 31.6177 40.4508C31.4878 40.9067 31.5485 41.3943 31.7863 41.8065C32.0242 42.2186 32.4197 42.5215 32.8858 42.6484C34.0151 42.9376 35.177 43.0872 36.3443 43.0938C37.6694 43.0938 39.1447 42.8711 40.3264 42.1007C40.9093 41.7216 41.3991 41.2208 41.7604 40.6345C42.1218 40.0482 42.3459 39.3908 42.4165 38.7096C42.9196 34.8555 39.1584 33.78 36.9066 33.1432H36.9089ZM2.39284 19.9375V3.90625C2.39284 2.96142 2.77664 2.05528 3.45981 1.38718C4.14298 0.719084 5.06955 0.343751 6.0357 0.343751H27.8928C28.1321 0.343567 28.3691 0.389485 28.5902 0.478883C28.8113 0.56828 29.0122 0.699405 29.1815 0.864766L41.9315 13.3335C42.1006 13.4991 42.2347 13.6956 42.3261 13.9118C42.4175 14.128 42.4645 14.3598 42.4643 14.5938V19.9375C42.4643 20.4099 42.2724 20.863 41.9308 21.197C41.5892 21.5311 41.1259 21.7188 40.6428 21.7188C40.1598 21.7188 39.6965 21.5311 39.3549 21.197C39.0133 20.863 38.8214 20.4099 38.8214 19.9375V16.375H27.8928C27.4098 16.375 26.9465 16.1873 26.6049 15.8533C26.2633 15.5192 26.0714 15.0662 26.0714 14.5938V3.90625H6.0357V19.9375C6.0357 20.4099 5.8438 20.863 5.50221 21.197C5.16063 21.5311 4.69734 21.7188 4.21427 21.7188C3.7312 21.7188 3.26791 21.5311 2.92632 21.197C2.58474 20.863 2.39284 20.4099 2.39284 19.9375ZM29.7143 12.8125H36.2441L29.7143 6.42449V12.8125Z" fill="#E6E2D7"/>
</svg>
