<svg width="32" height="33" viewBox="0 0 32 33" fill="none" xmlns="http://www.w3.org/2000/svg">
<path d="M28 19.8061V26.8061C28 27.3365 27.7893 27.8452 27.4142 28.2203C27.0391 28.5954 26.5304 28.8061 26 28.8061H6C5.46957 28.8061 4.96086 28.5954 4.58579 28.2203C4.21071 27.8452 4 27.3365 4 26.8061V19.8061C4 19.5409 4.10536 19.2865 4.29289 19.099C4.48043 18.9114 4.73478 18.8061 5 18.8061C5.26522 18.8061 5.51957 18.9114 5.70711 19.099C5.89464 19.2865 6 19.5409 6 19.8061V26.8061H26V19.8061C26 19.5409 26.1054 19.2865 26.2929 19.099C26.4804 18.9114 26.7348 18.8061 27 18.8061C27.2652 18.8061 27.5196 18.9114 27.7071 19.099C27.8946 19.2865 28 19.5409 28 19.8061ZM15.2925 20.5136C15.3854 20.6066 15.4957 20.6803 15.6171 20.7307C15.7385 20.781 15.8686 20.8069 16 20.8069C16.1314 20.8069 16.2615 20.781 16.3829 20.7307C16.5043 20.6803 16.6146 20.6066 16.7075 20.5136L21.7075 15.5136C21.8004 15.4207 21.8741 15.3104 21.9244 15.189C21.9747 15.0676 22.0006 14.9375 22.0006 14.8061C22.0006 14.6747 21.9747 14.5446 21.9244 14.4232C21.8741 14.3018 21.8004 14.1915 21.7075 14.0986C21.6146 14.0057 21.5043 13.932 21.3829 13.8817C21.2615 13.8314 21.1314 13.8055 21 13.8055C20.8686 13.8055 20.7385 13.8314 20.6171 13.8817C20.4957 13.932 20.3854 14.0057 20.2925 14.0986L17 17.3923V5.80609C17 5.54087 16.8946 5.28652 16.7071 5.09898C16.5196 4.91145 16.2652 4.80609 16 4.80609C15.7348 4.80609 15.4804 4.91145 15.2929 5.09898C15.1054 5.28652 15 5.54087 15 5.80609V17.3923L11.7075 14.0986C11.5199 13.9109 11.2654 13.8055 11 13.8055C10.7346 13.8055 10.4801 13.9109 10.2925 14.0986C10.1049 14.2862 9.99944 14.5407 9.99944 14.8061C9.99944 15.0715 10.1049 15.326 10.2925 15.5136L15.2925 20.5136Z" fill="#E6E2D7"/>
</svg>
