<svg width="35" height="49" viewBox="0 0 35 49" fill="none" xmlns="http://www.w3.org/2000/svg">
<path d="M31.3214 16.375C32.8505 15.2534 33.9801 13.6898 34.55 11.9056C35.1199 10.1213 35.1014 8.20694 34.4969 6.4336C33.8925 4.66026 32.7328 3.11785 31.1822 2.02487C29.6315 0.931895 27.7685 0.34375 25.8571 0.34375H9.46426C7.55283 0.34375 5.68985 0.931895 4.13922 2.02487C2.58859 3.11785 1.42891 4.66026 0.824465 6.4336C0.220018 8.20694 0.201441 10.1213 0.771368 11.9056C1.34129 13.6898 2.47083 15.2534 3.99997 16.375C2.84218 17.2235 1.90778 18.3296 1.27417 19.6017C0.640557 20.8737 0.325966 22.275 0.356454 23.6896C0.386942 25.1042 0.761632 26.4914 1.44949 27.7362C2.13735 28.981 3.11857 30.0476 4.31189 30.8477C2.95456 31.8569 1.88308 33.1882 1.19892 34.7155C0.51476 36.2429 0.240559 37.9157 0.40228 39.5757C0.564001 41.2356 1.15629 42.8278 2.12307 44.2013C3.08985 45.5748 4.39912 46.6843 5.92691 47.4247C7.4547 48.1651 9.15045 48.5118 10.8536 48.4322C12.5567 48.3525 14.2109 47.849 15.6594 46.9694C17.108 46.0898 18.303 44.8632 19.1313 43.4057C19.9596 41.9482 20.3939 40.3081 20.3928 38.6406V30.625C21.3496 31.3268 22.4383 31.8373 23.5969 32.1276C24.7554 32.4179 25.9611 32.4821 27.1451 32.3167C28.329 32.1513 29.4681 31.7595 30.4971 31.1636C31.5262 30.5677 32.4253 29.7794 33.1428 28.8438C33.8604 27.9081 34.3825 26.8434 34.6793 25.7104C34.9762 24.5774 35.0419 23.3983 34.8727 22.2405C34.7036 21.0826 34.3029 19.9687 33.6936 18.9623C33.0842 17.9559 32.2782 17.0768 31.3214 16.375ZM31.3214 9.25C31.3214 10.6673 30.7457 12.0265 29.721 13.0286C28.6962 14.0308 27.3063 14.5938 25.8571 14.5938H20.3928V3.90625H25.8571C27.3063 3.90625 28.6962 4.46925 29.721 5.4714C30.7457 6.47355 31.3214 7.83275 31.3214 9.25ZM3.99997 9.25C3.99997 7.83275 4.57567 6.47355 5.60043 5.4714C6.62518 4.46925 8.01504 3.90625 9.46426 3.90625H16.75V14.5938H9.46426C8.01504 14.5938 6.62518 14.0308 5.60043 13.0286C4.57567 12.0265 3.99997 10.6673 3.99997 9.25ZM9.46426 28.8438C8.01504 28.8438 6.62518 28.2808 5.60043 27.2786C4.57567 26.2765 3.99997 24.9172 3.99997 23.5C3.99997 22.0828 4.57567 20.7235 5.60043 19.7214C6.62518 18.7192 8.01504 18.1562 9.46426 18.1562H16.75V28.8438H9.46426ZM16.75 38.6406C16.75 39.8737 16.3761 41.079 15.6756 42.1043C14.9751 43.1295 13.9795 43.9286 12.8146 44.4004C11.6497 44.8723 10.3679 44.9958 9.13127 44.7552C7.89464 44.5147 6.75873 43.9209 5.86717 43.049C4.97561 42.1771 4.36845 41.0662 4.12247 39.8569C3.87649 38.6475 4.00273 37.394 4.48524 36.2548C4.96775 35.1157 5.78485 34.142 6.83321 33.4569C7.88158 32.7719 9.11412 32.4062 10.375 32.4062H16.75V38.6406ZM25.8571 28.8438C24.7764 28.8438 23.7199 28.5303 22.8213 27.9432C21.9227 27.356 21.2224 26.5214 20.8088 25.545C20.3952 24.5685 20.287 23.4941 20.4978 22.4575C20.7087 21.4209 21.2291 20.4687 21.9933 19.7214C22.7575 18.9741 23.7311 18.4651 24.7911 18.2589C25.8511 18.0527 26.9497 18.1586 27.9482 18.563C28.9467 18.9675 29.8001 19.6524 30.4005 20.5312C31.0009 21.4099 31.3214 22.4431 31.3214 23.5C31.3214 24.9172 30.7457 26.2765 29.721 27.2786C28.6962 28.2808 27.3063 28.8438 25.8571 28.8438Z" fill="#E6E2D7"/>
</svg>
