<svg width="32" height="33" viewBox="0 0 32 33" fill="none" xmlns="http://www.w3.org/2000/svg">
<g clip-path="url(#clip0_23_6)">
<path d="M26.0387 10.2661C26.3444 9.2801 26.4425 8.24146 26.3267 7.21567C26.211 6.18989 25.8839 5.19921 25.3662 4.30611C25.2785 4.15406 25.1522 4.0278 25.0001 3.94003C24.8481 3.85226 24.6756 3.80607 24.5 3.80611C23.3352 3.80367 22.186 4.07369 21.1442 4.59459C20.1024 5.11549 19.1969 5.87283 18.5 6.80611H15.5C14.8031 5.87283 13.8976 5.11549 12.8558 4.59459C11.814 4.07369 10.6648 3.80367 9.5 3.80611C9.32443 3.80607 9.15193 3.85226 8.99987 3.94003C8.84781 4.0278 8.72154 4.15406 8.63375 4.30611C8.11606 5.19921 7.78903 6.18989 7.67329 7.21567C7.55754 8.24146 7.65559 9.2801 7.96125 10.2661C7.34341 11.3445 7.01245 12.5633 7 13.8061V14.8061C7.0021 16.4981 7.61634 18.1322 8.72928 19.4067C9.84222 20.6811 11.3787 21.5099 13.055 21.7399C12.3708 22.6154 11.9994 23.6949 12 24.8061V25.8061H9C8.20435 25.8061 7.44129 25.49 6.87868 24.9274C6.31607 24.3648 6 23.6018 6 22.8061C6 22.1495 5.87067 21.4993 5.6194 20.8927C5.36812 20.2861 4.99983 19.7349 4.53553 19.2706C4.07124 18.8063 3.52005 18.438 2.91342 18.1867C2.30679 17.9354 1.65661 17.8061 1 17.8061C0.734784 17.8061 0.48043 17.9115 0.292893 18.099C0.105357 18.2865 0 18.5409 0 18.8061C0 19.0713 0.105357 19.3257 0.292893 19.5132C0.48043 19.7008 0.734784 19.8061 1 19.8061C1.79565 19.8061 2.55871 20.1222 3.12132 20.6848C3.68393 21.2474 4 22.0105 4 22.8061C4 24.1322 4.52678 25.404 5.46447 26.3416C6.40215 27.2793 7.67392 27.8061 9 27.8061H12V29.8061C12 30.0713 12.1054 30.3257 12.2929 30.5132C12.4804 30.7008 12.7348 30.8061 13 30.8061C13.2652 30.8061 13.5196 30.7008 13.7071 30.5132C13.8946 30.3257 14 30.0713 14 29.8061V24.8061C14 24.0105 14.3161 23.2474 14.8787 22.6848C15.4413 22.1222 16.2044 21.8061 17 21.8061C17.7956 21.8061 18.5587 22.1222 19.1213 22.6848C19.6839 23.2474 20 24.0105 20 24.8061V29.8061C20 30.0713 20.1054 30.3257 20.2929 30.5132C20.4804 30.7008 20.7348 30.8061 21 30.8061C21.2652 30.8061 21.5196 30.7008 21.7071 30.5132C21.8946 30.3257 22 30.0713 22 29.8061V24.8061C22.0006 23.6949 21.6292 22.6154 20.945 21.7399C22.6213 21.5099 24.1578 20.6811 25.2707 19.4067C26.3837 18.1322 26.9979 16.4981 27 14.8061V13.8061C26.9875 12.5633 26.6566 11.3445 26.0387 10.2661ZM25 14.8061C25 16.1322 24.4732 17.404 23.5355 18.3416C22.5979 19.2793 21.3261 19.8061 20 19.8061H14C12.6739 19.8061 11.4021 19.2793 10.4645 18.3416C9.52678 17.404 9 16.1322 9 14.8061V13.8061C9.01226 12.8061 9.31164 11.8308 9.8625 10.9961C9.96519 10.8608 10.0317 10.7015 10.0558 10.5333C10.0798 10.3651 10.0606 10.1936 10 10.0349C9.73953 9.3631 9.61417 8.64655 9.63112 7.92627C9.64806 7.20598 9.80698 6.49612 10.0988 5.83736C10.9171 5.9254 11.7052 6.1965 12.4046 6.63057C13.104 7.06464 13.6966 7.65055 14.1388 8.34486C14.2288 8.48574 14.3528 8.60178 14.4994 8.68236C14.6459 8.76294 14.8103 8.80549 14.9775 8.80611H19.0212C19.1891 8.80611 19.3543 8.76386 19.5015 8.68326C19.6487 8.60265 19.7733 8.48627 19.8638 8.34486C20.3058 7.65049 20.8985 7.06453 21.5978 6.63045C22.2972 6.19638 23.0853 5.92531 23.9037 5.83736C24.1951 6.49628 24.3536 7.20623 24.3701 7.92652C24.3866 8.6468 24.2609 9.36327 24 10.0349C23.9396 10.1921 23.9193 10.3619 23.9412 10.5288C23.963 10.6958 24.0262 10.8547 24.125 10.9911C24.6813 11.8258 24.9851 12.8032 25 13.8061V14.8061Z" fill="#E6E2D7"/>
</g>
<defs>
<clipPath id="clip0_23_6">
<rect width="32" height="32" fill="white" transform="translate(0 0.806091)"/>
</clipPath>
</defs>
</svg>
