<svg width="50" height="49" viewBox="0 0 50 49" fill="none" xmlns="http://www.w3.org/2000/svg">
<path d="M47.5706 11.8506C48.1273 10.0943 48.3059 8.24422 48.0951 6.41704C47.8843 4.58986 47.2886 2.82521 46.3457 1.23437C46.1858 0.963531 45.9558 0.738632 45.6788 0.582291C45.4018 0.42595 45.0877 0.343678 44.7679 0.343749C42.6463 0.339406 40.5531 0.820376 38.6556 1.74823C36.758 2.67608 35.1087 4.0251 33.8393 5.6875H28.375C27.1056 4.0251 25.4563 2.67608 23.5587 1.74823C21.6611 0.820376 19.568 0.339406 17.4464 0.343749C17.1266 0.343678 16.8124 0.42595 16.5355 0.582291C16.2585 0.738632 16.0285 0.963531 15.8686 1.23437C14.9257 2.82521 14.33 4.58986 14.1192 6.41704C13.9084 8.24422 14.087 10.0943 14.6437 11.8506C13.5183 13.7715 12.9155 15.9425 12.8929 18.1562V19.9375C12.8967 22.9514 14.0155 25.8621 16.0426 28.1323C18.0697 30.4024 20.8683 31.8786 23.9216 32.2882C22.6753 33.8479 21.9988 35.7706 22 37.75V39.5312H16.5357C15.0865 39.5312 13.6966 38.9683 12.6719 37.9661C11.6471 36.964 11.0714 35.6048 11.0714 34.1875C11.0714 33.0179 10.8359 31.8598 10.3782 30.7792C9.92051 29.6987 9.24968 28.7169 8.404 27.8898C7.55833 27.0628 6.55436 26.4068 5.44943 25.9592C4.3445 25.5116 3.16025 25.2812 1.96428 25.2812C1.48121 25.2812 1.01792 25.4689 0.676337 25.803C0.334753 26.137 0.142853 26.5901 0.142853 27.0625C0.142853 27.5349 0.334753 27.988 0.676337 28.322C1.01792 28.6561 1.48121 28.8438 1.96428 28.8438C3.4135 28.8438 4.80336 29.4067 5.82811 30.4089C6.85287 31.411 7.42857 32.7702 7.42857 34.1875C7.42857 36.5496 8.38807 38.8149 10.096 40.4852C11.8039 42.1554 14.1203 43.0938 16.5357 43.0938H22V46.6562C22 47.1287 22.1919 47.5817 22.5335 47.9158C22.8751 48.2498 23.3384 48.4375 23.8214 48.4375C24.3045 48.4375 24.7678 48.2498 25.1094 47.9158C25.451 47.5817 25.6429 47.1287 25.6429 46.6562V37.75C25.6429 36.3327 26.2186 34.9735 27.2433 33.9714C28.2681 32.9692 29.6579 32.4062 31.1071 32.4062C32.5564 32.4062 33.9462 32.9692 34.971 33.9714C35.9957 34.9735 36.5714 36.3327 36.5714 37.75V46.6562C36.5714 47.1287 36.7633 47.5817 37.1049 47.9158C37.4465 48.2498 37.9098 48.4375 38.3929 48.4375C38.8759 48.4375 39.3392 48.2498 39.6808 47.9158C40.0224 47.5817 40.2143 47.1287 40.2143 46.6562V37.75C40.2155 35.7706 39.539 33.8479 38.2927 32.2882C41.3459 31.8786 44.1445 30.4024 46.1717 28.1323C48.1988 25.8621 49.3176 22.9514 49.3214 19.9375V18.1562C49.2987 15.9425 48.6959 13.7715 47.5706 11.8506ZM45.6786 19.9375C45.6786 22.2996 44.7191 24.5649 43.0111 26.2352C41.3032 27.9054 38.9868 28.8438 36.5714 28.8438H25.6429C23.2275 28.8438 20.9111 27.9054 19.2031 26.2352C17.4952 24.5649 16.5357 22.2996 16.5357 19.9375V18.1562C16.558 16.3751 17.1033 14.6377 18.1067 13.1509C18.2937 12.9098 18.4149 12.6261 18.4587 12.3265C18.5025 12.027 18.4676 11.7214 18.3571 11.4387C17.8827 10.2421 17.6544 8.96579 17.6852 7.68278C17.7161 6.39977 18.0056 5.13533 18.537 3.96191C20.0277 4.11873 21.4631 4.60164 22.7369 5.37483C24.0108 6.14801 25.0903 7.19166 25.8956 8.4284C26.0597 8.67934 26.2855 8.88604 26.5524 9.02957C26.8193 9.1731 27.1187 9.24889 27.4233 9.25H34.7887C35.0944 9.25001 35.3953 9.17475 35.6634 9.03117C35.9316 8.88758 36.1585 8.68029 36.3233 8.4284C37.1284 7.19155 38.2079 6.14782 39.4818 5.37462C40.7556 4.60141 42.1911 4.11858 43.6818 3.96191C44.2125 5.13563 44.5012 6.40022 44.5313 7.68323C44.5614 8.96624 44.3323 10.2424 43.8571 11.4387C43.7471 11.7187 43.7102 12.0212 43.75 12.3186C43.7897 12.6161 43.9048 12.8991 44.0848 13.142C45.0981 14.6288 45.6515 16.3697 45.6786 18.1562V19.9375Z" fill="#E6E2D7"/>
</svg>
