<svg width="46" height="35" viewBox="0 0 46 35" fill="none" xmlns="http://www.w3.org/2000/svg">
<path d="M23.125 12.26C27.485 12.1667 31.8383 12.0833 36.185 12.01C39.305 11.96 42.395 12.44 42.145 16.21C42.1051 16.777 41.866 17.3113 41.4705 17.7179C41.0749 18.1244 40.5485 18.3768 39.985 18.43L33.075 19.1C32.735 19.1333 32.6516 19.2967 32.825 19.59C33.6716 21.0167 33.4116 22.2133 32.045 23.18C31.725 23.4 31.635 23.6933 31.775 24.06C32.4016 25.7133 31.9216 26.9067 30.335 27.64C30.1856 27.7102 30.0573 27.8172 29.9626 27.9505C29.8679 28.0838 29.8101 28.2387 29.795 28.4C29.555 31.0067 28.195 32.3433 25.715 32.41C19.855 32.57 13.895 33.5 9.82496 29.05C9.71574 28.9285 9.57997 28.8331 9.42768 28.7708C9.27538 28.7085 9.11042 28.6809 8.94496 28.69L4.47496 28.92C4.08829 28.94 3.89496 28.7567 3.89496 28.37L4.01496 14.17C4.01498 13.9967 4.08421 13.8303 4.2077 13.7068C4.33119 13.5833 4.49903 13.5126 4.67496 13.51L8.84496 13.45C9.00972 13.4467 9.17111 13.4062 9.31673 13.3316C9.46235 13.2571 9.58832 13.1505 9.68496 13.02C11.7516 10.1933 13.9716 8.27334 16.345 7.26C20.5183 5.48667 23.6683 3.84334 25.795 2.33C26.075 2.13667 26.3016 2.18667 26.475 2.48C29.305 7.3 26.055 9.13 22.925 11.72C22.4716 12.0933 22.5383 12.2733 23.125 12.26ZM28.575 16.46L27.995 14.27C27.9646 14.1503 27.8925 14.0452 27.7917 13.9738C27.691 13.9023 27.568 13.8691 27.445 13.88C23.9916 14.18 20.5616 14.0933 17.155 13.62C16.345 13.5 15.855 12.8 16.025 12.01C16.0426 11.9287 16.0776 11.8522 16.1275 11.7856C16.1773 11.719 16.2409 11.6639 16.314 11.624C16.387 11.5842 16.4678 11.5606 16.5508 11.5547C16.6338 11.5488 16.717 11.5609 16.795 11.59C17.835 11.97 18.335 12.11 19.395 11.65C21.625 10.68 26.035 8.27 25.675 5.44C25.635 5.13334 25.475 5.04667 25.195 5.18L15.255 9.84C15.1986 9.86634 15.1488 9.90486 15.1092 9.95278C15.0695 10.0007 15.041 10.0568 15.0257 10.1171C15.0104 10.1774 15.0087 10.2403 15.0207 10.3013C15.0326 10.3624 15.058 10.42 15.095 10.47L15.465 10.97C15.7983 11.4233 15.7183 11.52 15.225 11.26L14.635 10.95C14.4416 10.85 14.285 10.89 14.165 11.07L12.125 14.07C12.1211 14.0786 12.1147 14.0851 12.1066 14.0884C12.0986 14.0917 12.0893 14.0916 12.0803 14.0882C12.0712 14.0848 12.0629 14.0783 12.0565 14.0696C12.0501 14.0609 12.0461 14.0505 12.045 14.04C12.0316 13.62 11.875 13.47 11.575 13.59C11.5004 13.6201 11.4341 13.6675 11.3813 13.7282C11.3286 13.7888 11.2909 13.8611 11.2714 13.9391C11.2519 14.0171 11.2511 14.0986 11.2691 14.177C11.2871 14.2553 11.3234 14.3283 11.375 14.39L12.445 15.66C12.4893 15.7059 12.5148 15.7658 12.5167 15.8287C12.5186 15.8915 12.4968 15.9531 12.4553 16.0019C12.4138 16.0507 12.3554 16.0835 12.291 16.0942C12.2266 16.1049 12.1605 16.0927 12.105 16.06C10.3916 15.04 8.43829 14.7933 6.24496 15.32C6.01419 15.3784 5.81257 15.5188 5.67774 15.715C5.54291 15.9111 5.48408 16.1497 5.51225 16.386C5.54042 16.6224 5.65365 16.8404 5.83081 16.9994C6.00797 17.1584 6.23693 17.2475 6.47496 17.25L8.06496 17.26C8.38496 17.26 8.44829 17.3867 8.25496 17.64L7.91496 18.07C7.85026 18.1521 7.75955 18.2096 7.65777 18.2333C7.55598 18.2569 7.44919 18.2452 7.35496 18.2L6.99496 18.03C6.72829 17.9033 6.55496 17.9833 6.47496 18.27C6.37496 18.65 6.46163 18.93 6.73496 19.11C7.48829 19.59 7.52829 19.7933 6.85496 19.72L6.35496 19.67C6.27313 19.6601 6.19011 19.6677 6.11145 19.6923C6.03279 19.717 5.96029 19.7581 5.89879 19.813C5.83728 19.8679 5.78818 19.9352 5.75475 20.0106C5.72133 20.086 5.70436 20.1676 5.70496 20.25L5.75496 26.63C5.76163 26.95 5.92163 27.0967 6.23496 27.07L9.39496 26.85C9.71496 26.8233 9.98829 26.9233 10.215 27.15C11.635 28.57 13.0183 29.5867 14.365 30.2C14.5516 30.2867 14.705 30.2833 14.825 30.19C14.9316 30.1033 14.9283 30.0167 14.815 29.93L11.645 27.53C11.5839 27.485 11.5369 27.4235 11.5094 27.3528C11.4819 27.2821 11.4751 27.205 11.4898 27.1306C11.5045 27.0562 11.54 26.9874 11.5923 26.9325C11.6445 26.8775 11.7114 26.8385 11.785 26.82C11.885 26.7933 11.9883 26.7633 12.095 26.73C12.2255 26.6902 12.3662 26.6985 12.4924 26.7534C12.6186 26.8083 12.7222 26.9062 12.785 27.03C13.2783 27.97 14.025 28.49 15.025 28.59C15.245 28.61 15.3716 28.73 15.405 28.95C15.5516 29.9567 16.135 30.57 17.155 30.79C17.2419 30.8085 17.3317 30.8084 17.4188 30.7898C17.5059 30.7711 17.5883 30.7343 17.6607 30.6816C17.7332 30.6289 17.7941 30.5615 17.8396 30.4838C17.885 30.406 17.9141 30.3196 17.925 30.23C17.9783 29.71 18.1616 29.2533 18.475 28.86C18.8683 28.36 19.045 28.4267 19.005 29.06L18.925 30.33C18.9116 30.5233 18.9983 30.64 19.185 30.68C19.2783 30.7 19.375 30.7267 19.475 30.76C19.7416 30.84 19.885 30.74 19.905 30.46L20.005 28.98C20.0107 28.9066 20.0425 28.8376 20.0944 28.7855C20.1464 28.7333 20.2153 28.7014 20.2887 28.6954C20.3621 28.6894 20.4352 28.7097 20.495 28.7527C20.5548 28.7956 20.5973 28.8585 20.615 28.93C20.715 29.37 20.7183 29.8167 20.625 30.27C20.545 30.6967 20.7183 30.8933 21.145 30.86L27.055 30.41C27.405 30.3928 27.7339 30.2372 27.9693 29.9774C28.2047 29.7177 28.3272 29.3751 28.31 29.025C28.2927 28.6749 28.1371 28.346 27.8774 28.1107C27.6176 27.8753 27.275 27.7528 26.925 27.77C25.525 27.79 24.225 27.8967 23.025 28.09C22.5583 28.1633 22.4083 27.98 22.575 27.54L22.775 27.01C22.8816 26.7233 23.085 26.6133 23.385 26.68C25.4516 27.1533 27.4983 26.9533 29.525 26.08C29.7797 25.969 29.9935 25.7804 30.1358 25.5412C30.278 25.3021 30.3415 25.0246 30.3171 24.7484C30.2927 24.4722 30.1817 24.2114 29.9999 24.0034C29.8181 23.7953 29.5749 23.6507 29.305 23.59C27.4916 23.1633 25.715 23.29 23.975 23.97C23.7083 24.0767 23.5783 23.9867 23.585 23.7L23.605 22.78C23.6116 22.36 23.8216 22.1933 24.235 22.28C26.595 22.78 28.885 22.6233 31.105 21.81C31.2437 21.7584 31.3662 21.6705 31.4595 21.5556C31.5528 21.4407 31.6135 21.3032 31.635 21.1575C31.6566 21.0119 31.6382 20.8637 31.5818 20.7285C31.5255 20.5934 31.4332 20.4764 31.315 20.39C29.1683 18.7967 26.8116 18.2933 24.245 18.88C23.905 18.9533 23.6883 18.8233 23.595 18.49L23.295 17.5C23.1016 16.84 23.295 16.6967 23.875 17.07L24.455 17.45C24.7279 17.6252 25.05 17.7092 25.375 17.69L37.585 16.96C37.8516 16.9467 37.9083 16.83 37.755 16.61C37.4883 16.2233 37.345 15.79 37.325 15.31C37.3116 15.09 37.365 14.8933 37.485 14.72C37.6183 14.52 37.7916 14.3367 38.005 14.17C38.3716 13.8767 38.3183 13.73 37.845 13.73L31.565 13.78C31.4305 13.7826 31.3023 13.8371 31.2072 13.9322C31.1121 14.0273 31.0575 14.1555 31.055 14.29L31.025 16.1C31.0236 16.1727 30.9961 16.2416 30.9473 16.2943C30.8986 16.347 30.8318 16.38 30.7592 16.3872C30.6866 16.3945 30.613 16.3756 30.5516 16.3339C30.4903 16.2922 30.4454 16.2305 30.425 16.16L29.945 14.14C29.931 14.0845 29.9051 14.0328 29.869 13.9885C29.8328 13.9442 29.7874 13.9083 29.7359 13.8835C29.6843 13.8587 29.628 13.8455 29.5708 13.8449C29.5136 13.8443 29.457 13.8563 29.405 13.88L29.145 14C29.0297 14.0569 28.941 14.1559 28.898 14.2756C28.855 14.3953 28.8611 14.5262 28.915 14.64C29.1616 15.1667 29.335 15.7133 29.435 16.28C29.4518 16.3912 29.4255 16.5046 29.3614 16.597C29.2972 16.6894 29.2002 16.7537 29.0901 16.7767C28.98 16.7997 28.8653 16.7798 28.7695 16.7209C28.6737 16.662 28.6041 16.5686 28.575 16.46ZM39.085 14.65C39.395 15.31 39.355 15.8 38.965 16.41C38.865 16.5833 38.9116 16.67 39.105 16.67C39.645 16.67 40.0383 16.4767 40.285 16.09C40.4916 15.7767 40.5116 15.3933 40.345 14.94C40.105 14.28 39.755 14.0233 39.295 14.17C39.035 14.25 38.965 14.41 39.085 14.65Z" fill="#E6E2D7"/>
<path d="M15.6749 27.89C14.5883 27.6233 13.7749 26.9967 13.2349 26.01C13.2067 25.9568 13.1971 25.8956 13.2077 25.8363C13.2182 25.7769 13.2483 25.7228 13.2932 25.6826C13.338 25.6423 13.395 25.6182 13.4552 25.6141C13.5153 25.6101 13.5751 25.6262 13.6249 25.66L16.4249 27.51C16.4818 27.547 16.5288 27.5973 16.562 27.6564C16.5952 27.7156 16.6136 27.7819 16.6156 27.8498C16.6175 27.9176 16.603 27.9849 16.5733 28.0459C16.5436 28.1069 16.4996 28.1597 16.4449 28.2L16.1449 28.43C16.0249 28.5167 15.9149 28.5067 15.8149 28.4C15.7216 28.3 15.7016 28.1833 15.7549 28.05C15.7816 27.9633 15.7549 27.91 15.6749 27.89Z" fill="#E6E2D7"/>
</svg>
