<svg width="52" height="44" viewBox="0 0 52 44" fill="none" xmlns="http://www.w3.org/2000/svg">
<path d="M24.1429 28.8438C24.1429 29.3162 23.951 29.7692 23.6094 30.1033C23.2678 30.4373 22.8045 30.625 22.3214 30.625H20.5V41.3125C20.5 41.7849 20.3081 42.238 19.9665 42.572C19.6249 42.9061 19.1617 43.0938 18.6786 43.0938C18.1955 43.0938 17.7322 42.9061 17.3906 42.572C17.0491 42.238 16.8572 41.7849 16.8572 41.3125V30.625H15.0357C14.5526 30.625 14.0894 30.4373 13.7478 30.1033C13.4062 29.7692 13.2143 29.3162 13.2143 28.8438C13.2143 28.3713 13.4062 27.9183 13.7478 27.5842C14.0894 27.2502 14.5526 27.0625 15.0357 27.0625H22.3214C22.8045 27.0625 23.2678 27.2502 23.6094 27.5842C23.951 27.9183 24.1429 28.3713 24.1429 28.8438ZM9.57144 27.0625C9.08836 27.0625 8.62508 27.2502 8.28349 27.5842C7.94191 27.9183 7.75001 28.3713 7.75001 28.8438V33.2969H4.10715V28.8438C4.10715 28.3713 3.91525 27.9183 3.57367 27.5842C3.23208 27.2502 2.7688 27.0625 2.28572 27.0625C1.80265 27.0625 1.33936 27.2502 0.997778 27.5842C0.656194 27.9183 0.464294 28.3713 0.464294 28.8438V41.3125C0.464294 41.7849 0.656194 42.238 0.997778 42.572C1.33936 42.9061 1.80265 43.0938 2.28572 43.0938C2.7688 43.0938 3.23208 42.9061 3.57367 42.572C3.91525 42.238 4.10715 41.7849 4.10715 41.3125V36.8594H7.75001V41.3125C7.75001 41.7849 7.94191 42.238 8.28349 42.572C8.62508 42.9061 9.08836 43.0938 9.57144 43.0938C10.0545 43.0938 10.5178 42.9061 10.8594 42.572C11.201 42.238 11.3929 41.7849 11.3929 41.3125V28.8438C11.3929 28.3713 11.201 27.9183 10.8594 27.5842C10.5178 27.2502 10.0545 27.0625 9.57144 27.0625ZM49.6429 39.5312H46.9107V28.8438C46.9107 28.3713 46.7188 27.9183 46.3772 27.5842C46.0357 27.2502 45.5724 27.0625 45.0893 27.0625C44.6062 27.0625 44.1429 27.2502 43.8013 27.5842C43.4598 27.9183 43.2679 28.3713 43.2679 28.8438V41.3125C43.2679 41.7849 43.4598 42.238 43.8013 42.572C44.1429 42.9061 44.6062 43.0938 45.0893 43.0938H49.6429C50.1259 43.0938 50.5892 42.9061 50.9308 42.572C51.2724 42.238 51.4643 41.7849 51.4643 41.3125C51.4643 40.8401 51.2724 40.387 50.9308 40.053C50.5892 39.7189 50.1259 39.5312 49.6429 39.5312ZM39.2015 27.1271C38.8176 27.0228 38.4093 27.0445 38.0392 27.1888C37.669 27.3332 37.3575 27.5923 37.1524 27.9264L33.25 34.2877L29.3476 27.9264C29.1426 27.5923 28.8313 27.3331 28.4613 27.1886C28.0913 27.0441 27.683 27.0222 27.2991 27.1263C26.9151 27.2304 26.5767 27.4548 26.3356 27.765C26.0945 28.0752 25.9641 28.4541 25.9643 28.8438V41.3125C25.9643 41.7849 26.1562 42.238 26.4978 42.572C26.8394 42.9061 27.3027 43.0938 27.7857 43.0938C28.2688 43.0938 28.7321 42.9061 29.0737 42.572C29.4153 42.238 29.6072 41.7849 29.6072 41.3125V35.2741L31.6881 38.6673C31.85 38.9311 32.0789 39.1494 32.3526 39.301C32.6263 39.4525 32.9355 39.5322 33.25 39.5322C33.5645 39.5322 33.8737 39.4525 34.1474 39.301C34.4211 39.1494 34.6501 38.9311 34.8119 38.6673L36.8929 35.2741V41.3125C36.8929 41.7849 37.0848 42.238 37.4263 42.572C37.7679 42.9061 38.2312 43.0938 38.7143 43.0938C39.1974 43.0938 39.6607 42.9061 40.0022 42.572C40.3438 42.238 40.5357 41.7849 40.5357 41.3125V28.8438C40.5358 28.4543 40.4054 28.0756 40.1644 27.7656C39.9234 27.4555 39.5852 27.2312 39.2015 27.1271ZM42.3572 21.7188C41.8741 21.7188 41.4108 21.5311 41.0692 21.197C40.7276 20.863 40.5357 20.4099 40.5357 19.9375V16.375H29.6072C29.1241 16.375 28.6608 16.1873 28.3192 15.8533C27.9776 15.5192 27.7857 15.0662 27.7857 14.5938V3.90625H7.75001V19.9375C7.75001 20.4099 7.55811 20.863 7.21652 21.197C6.87494 21.5311 6.41165 21.7188 5.92858 21.7188C5.44551 21.7188 4.98222 21.5311 4.64064 21.197C4.29905 20.863 4.10715 20.4099 4.10715 19.9375V3.90625C4.10715 2.96142 4.49095 2.05528 5.17412 1.38718C5.85729 0.719084 6.78386 0.343751 7.75001 0.343751H29.6072C29.8464 0.343567 30.0834 0.389485 30.3045 0.478883C30.5256 0.56828 30.7265 0.699405 30.8958 0.864766L43.6458 13.3335C43.8149 13.4991 43.949 13.6956 44.0404 13.9118C44.1318 14.128 44.1788 14.3598 44.1786 14.5938V19.9375C44.1786 20.4099 43.9867 20.863 43.6451 21.197C43.3035 21.5311 42.8402 21.7188 42.3572 21.7188ZM37.9607 12.8125L31.4286 6.42449V12.8125H37.9607Z" fill="#E6E2D7"/>
</svg>
