<svg width="44" height="47" viewBox="0 0 44 47" fill="none" xmlns="http://www.w3.org/2000/svg">
<path d="M43.2172 13.3335L30.4672 0.864766C30.2979 0.699405 30.097 0.56828 29.8759 0.478883C29.6548 0.389485 29.4178 0.343567 29.1786 0.343751H7.32141C6.35527 0.343751 5.42869 0.719084 4.74552 1.38718C4.06235 2.05528 3.67855 2.96142 3.67855 3.90625V19.9375C3.67855 20.4099 3.87045 20.863 4.21204 21.197C4.55362 21.5311 5.01691 21.7188 5.49998 21.7188C5.98306 21.7188 6.44634 21.5311 6.78793 21.197C7.12951 20.863 7.32141 20.4099 7.32141 19.9375V3.90625H27.3571V14.5938C27.3571 15.0662 27.549 15.5192 27.8906 15.8533C28.2322 16.1873 28.6955 16.375 29.1786 16.375H40.1071V43.0938H34.6428C34.1598 43.0938 33.6965 43.2814 33.3549 43.6155C33.0133 43.9495 32.8214 44.4026 32.8214 44.875C32.8214 45.3474 33.0133 45.8005 33.3549 46.1345C33.6965 46.4686 34.1598 46.6562 34.6428 46.6562H40.1071C41.0733 46.6562 41.9998 46.2809 42.683 45.6128C43.3662 44.9447 43.75 44.0386 43.75 43.0938V14.5938C43.7502 14.3598 43.7032 14.128 43.6118 13.9118C43.5204 13.6956 43.3863 13.4991 43.2172 13.3335ZM31 6.42449L37.5321 12.8125H31V6.42449ZM28.2246 38.7096C28.1536 39.3909 27.9291 40.0484 27.5674 40.6347C27.2056 41.221 26.7154 41.7217 26.1322 42.1007C24.9506 42.8711 23.4866 43.0938 22.1501 43.0938C20.9828 43.0872 19.8209 42.9376 18.6917 42.6484C18.2264 42.5212 17.8319 42.2184 17.5949 41.8067C17.358 41.395 17.2979 40.908 17.4281 40.453C17.5582 39.9981 17.8678 39.6122 18.2888 39.3805C18.7098 39.1487 19.2077 39.09 19.673 39.2173C20.6702 39.4845 23.0882 39.8185 24.1241 39.1371C24.3244 39.0058 24.5407 38.7987 24.6113 38.2621C24.6887 37.6676 24.4497 37.3492 21.7016 36.5722C19.5728 35.971 16.0096 34.9623 16.465 31.4266C16.536 30.7587 16.7564 30.1143 17.1105 29.5391C17.4646 28.9638 17.9438 28.4718 18.5141 28.0979C21.2098 26.3166 25.5061 27.3609 25.9888 27.4833C26.4562 27.6035 26.8556 27.9003 27.0992 28.3085C27.3428 28.7166 27.4106 29.2027 27.2877 29.6598C27.1648 30.1168 26.8613 30.5075 26.4439 30.7457C26.0265 30.9839 25.5295 31.0502 25.0621 30.93C24.0398 30.6695 21.5946 30.36 20.5473 31.0547C20.41 31.1453 20.297 31.2668 20.2177 31.409C20.1385 31.5512 20.0953 31.71 20.0919 31.8719C20.0646 32.0723 20.06 32.1146 20.3446 32.2949C20.8706 32.6267 21.8132 32.8916 22.7239 33.1499C24.9642 33.78 28.7346 34.8555 28.2246 38.7096ZM12.7857 28.8438V37.3047C12.7857 38.84 12.162 40.3125 11.0519 41.3982C9.94172 42.4838 8.43604 43.0938 6.86605 43.0938C5.29607 43.0938 3.79038 42.4838 2.68023 41.3982C1.57009 40.3125 0.946411 38.84 0.946411 37.3047C0.946411 36.8323 1.13831 36.3792 1.4799 36.0452C1.82148 35.7111 2.28477 35.5234 2.76784 35.5234C3.25091 35.5234 3.7142 35.7111 4.05578 36.0452C4.39737 36.3792 4.58927 36.8323 4.58927 37.3047C4.58927 37.8952 4.82914 38.4615 5.25612 38.8791C5.6831 39.2967 6.26221 39.5312 6.86605 39.5312C7.46989 39.5312 8.049 39.2967 8.47598 38.8791C8.90296 38.4615 9.14284 37.8952 9.14284 37.3047V28.8438C9.14284 28.3713 9.33474 27.9183 9.67632 27.5842C10.0179 27.2502 10.4812 27.0625 10.9643 27.0625C11.4473 27.0625 11.9106 27.2502 12.2522 27.5842C12.5938 27.9183 12.7857 28.3713 12.7857 28.8438Z" fill="#E6E2D7"/>
</svg>
