<svg width="32" height="33" viewBox="0 0 32 33" fill="none" xmlns="http://www.w3.org/2000/svg">
<path d="M27 3.80609H5C4.46957 3.80609 3.96086 4.0168 3.58579 4.39188C3.21071 4.76695 3 5.27566 3 5.80609V27.8061C3 28.3365 3.21071 28.8452 3.58579 29.2203C3.96086 29.5954 4.46957 29.8061 5 29.8061H27C27.5304 29.8061 28.0391 29.5954 28.4142 29.2203C28.7893 28.8452 29 28.3365 29 27.8061V5.80609C29 5.27566 28.7893 4.76695 28.4142 4.39188C28.0391 4.0168 27.5304 3.80609 27 3.80609ZM27 27.8061H5V5.80609H27V27.8061ZM12 14.8061V22.8061C12 23.0713 11.8946 23.3257 11.7071 23.5132C11.5196 23.7007 11.2652 23.8061 11 23.8061C10.7348 23.8061 10.4804 23.7007 10.2929 23.5132C10.1054 23.3257 10 23.0713 10 22.8061V14.8061C10 14.5409 10.1054 14.2865 10.2929 14.099C10.4804 13.9114 10.7348 13.8061 11 13.8061C11.2652 13.8061 11.5196 13.9114 11.7071 14.099C11.8946 14.2865 12 14.5409 12 14.8061ZM23 18.3061V22.8061C23 23.0713 22.8946 23.3257 22.7071 23.5132C22.5196 23.7007 22.2652 23.8061 22 23.8061C21.7348 23.8061 21.4804 23.7007 21.2929 23.5132C21.1054 23.3257 21 23.0713 21 22.8061V18.3061C21 17.6431 20.7366 17.0072 20.2678 16.5383C19.7989 16.0695 19.163 15.8061 18.5 15.8061C17.837 15.8061 17.2011 16.0695 16.7322 16.5383C16.2634 17.0072 16 17.6431 16 18.3061V22.8061C16 23.0713 15.8946 23.3257 15.7071 23.5132C15.5196 23.7007 15.2652 23.8061 15 23.8061C14.7348 23.8061 14.4804 23.7007 14.2929 23.5132C14.1054 23.3257 14 23.0713 14 22.8061V14.8061C14.0012 14.5611 14.0923 14.3252 14.256 14.1429C14.4197 13.9607 14.6446 13.8449 14.888 13.8175C15.1314 13.79 15.3764 13.8529 15.5765 13.9941C15.7767 14.1353 15.918 14.3451 15.9738 14.5836C16.6502 14.1247 17.4389 13.8587 18.2552 13.8142C19.0714 13.7698 19.8844 13.9485 20.6067 14.3312C21.329 14.7139 21.9335 15.2861 22.3551 15.9864C22.7768 16.6867 22.9997 17.4886 23 18.3061ZM12.5 11.3061C12.5 11.6028 12.412 11.8928 12.2472 12.1394C12.0824 12.3861 11.8481 12.5784 11.574 12.6919C11.2999 12.8054 10.9983 12.8351 10.7074 12.7773C10.4164 12.7194 10.1491 12.5765 9.93934 12.3668C9.72956 12.157 9.5867 11.8897 9.52882 11.5987C9.47094 11.3078 9.50065 11.0062 9.61418 10.7321C9.72771 10.458 9.91997 10.2237 10.1666 10.0589C10.4133 9.89406 10.7033 9.80609 11 9.80609C11.3978 9.80609 11.7794 9.96413 12.0607 10.2454C12.342 10.5267 12.5 10.9083 12.5 11.3061Z" fill="#E6E2D7"/>
</svg>
