<svg width="139" height="117" viewBox="0 0 139 117" fill="none" xmlns="http://www.w3.org/2000/svg">
<path d="M128.308 0H32.0769C29.2411 0 26.5215 1.12061 24.5163 3.11532C22.5111 5.11002 21.3846 7.81542 21.3846 10.6364V21.2727H10.6923C7.85653 21.2727 5.1369 22.3933 3.1317 24.388C1.12651 26.3828 0 29.0882 0 31.9091V106.364C0 109.185 1.12651 111.89 3.1317 113.885C5.1369 115.879 7.85653 117 10.6923 117H106.923C109.759 117 112.478 115.879 114.484 113.885C116.489 111.89 117.615 109.185 117.615 106.364V95.7273H128.308C131.143 95.7273 133.863 94.6067 135.868 92.612C137.873 90.6172 139 87.9118 139 85.0909V10.6364C139 7.81542 137.873 5.11002 135.868 3.11532C133.863 1.12061 131.143 0 128.308 0ZM106.923 31.9091V42.5455H10.6923V31.9091H106.923ZM106.923 106.364H10.6923V53.1818H106.923V106.364ZM128.308 85.0909H117.615V31.9091C117.615 29.0882 116.489 26.3828 114.484 24.388C112.478 22.3933 109.759 21.2727 106.923 21.2727H32.0769V10.6364H128.308V85.0909Z" fill="black"/>
</svg>
