<svg width="44" height="43" viewBox="0 0 44 43" fill="none" xmlns="http://www.w3.org/2000/svg">
<path d="M37.5095 21.5C43.1217 13.7939 45.9837 5.82946 42.0038 1.93743C38.024 -1.9546 29.8799 0.844186 22 6.33266C14.12 0.844186 5.97598 -1.9546 1.99616 1.93743C-1.98367 5.82946 0.878254 13.7939 6.49053 21.5C0.878254 29.2061 -1.98367 37.1706 1.99616 41.0626C3.27799 42.3161 4.99013 42.875 6.98459 42.875C11.1921 42.875 16.6564 40.3879 22.0114 36.6673C27.3436 40.3879 32.8079 42.875 37.0268 42.875C39.0212 42.875 40.7357 42.3139 42.0152 41.0626C45.9837 37.1706 43.1217 29.2061 37.5095 21.5ZM39.4288 4.45567C41.1683 6.15676 39.9934 11.6697 35.2122 18.5454C33.6996 16.7142 32.0892 14.9624 30.3877 13.2973C28.6849 11.6357 26.8936 10.063 25.0213 8.58594C32.052 3.91016 37.6893 2.75235 39.4288 4.45567ZM32.9946 21.5C31.3835 23.4931 29.6531 25.3913 27.8126 27.1844C25.979 28.9843 24.0381 30.6765 22 32.2521C19.9619 30.6765 18.021 28.9843 16.1874 27.1844C14.3469 25.3913 12.6165 23.4931 11.0054 21.5C14.2378 17.5166 17.9267 13.909 22 10.7479C24.0381 12.3235 25.979 14.0157 27.8126 15.8156C29.6531 17.6087 31.3835 19.5069 32.9946 21.5ZM4.5712 4.45567C5.07209 3.9636 5.89857 3.70977 6.98915 3.70977C9.68031 3.70977 13.9766 5.2461 18.9764 8.58594C17.1059 10.0642 15.3154 11.6368 13.6123 13.2973C11.9131 14.9626 10.305 16.7144 8.79464 18.5454C4.01339 11.6697 2.83174 6.15676 4.5712 4.45567ZM4.5712 38.5443C2.83174 36.8432 4.01339 31.3303 8.79464 24.4547C10.3072 26.2858 11.9176 28.0376 13.6191 29.7027C15.3208 31.363 17.1098 32.9356 18.9787 34.4141C11.948 39.0898 6.31066 40.2477 4.5712 38.5443ZM39.4288 38.5443C37.6893 40.2477 32.052 39.0965 25.0213 34.4207C26.8927 32.9403 28.6839 31.3655 30.3877 29.7027C32.0868 28.0374 33.695 26.2856 35.2053 24.4547C39.9866 31.3303 41.1683 36.8432 39.4288 38.5443ZM24.7321 21.5C24.7321 22.0285 24.5719 22.545 24.2717 22.9844C23.9715 23.4238 23.5448 23.7663 23.0455 23.9685C22.5463 24.1707 21.997 24.2236 21.467 24.1205C20.937 24.0174 20.4502 23.763 20.0681 23.3893C19.686 23.0156 19.4258 22.5396 19.3203 22.0213C19.2149 21.503 19.269 20.9657 19.4758 20.4775C19.6826 19.9893 20.0328 19.572 20.4821 19.2784C20.9314 18.9848 21.4596 18.8281 22 18.8281C22.7246 18.8281 23.4195 19.1096 23.9319 19.6107C24.4443 20.1118 24.7321 20.7914 24.7321 21.5Z" fill="#E6E2D7"/>
</svg>
