<svg width="44" height="44" viewBox="0 0 44 44" fill="none" xmlns="http://www.w3.org/2000/svg">
<path d="M2.64287 21.7187C3.12594 21.7187 3.58923 21.5311 3.93081 21.197C4.2724 20.863 4.4643 20.4099 4.4643 19.9375V3.90625H24.5V14.5937C24.5 15.0662 24.6919 15.5192 25.0335 15.8533C25.3751 16.1873 25.8384 16.375 26.3214 16.375H37.25V19.9375C37.25 20.4099 37.4419 20.863 37.7835 21.197C38.1251 21.5311 38.5884 21.7187 39.0714 21.7187C39.5545 21.7187 40.0178 21.5311 40.3594 21.197C40.701 20.863 40.8929 20.4099 40.8929 19.9375V14.5937C40.8931 14.3598 40.8461 14.128 40.7547 13.9118C40.6633 13.6956 40.5292 13.4991 40.3601 13.3335L27.6101 0.864766C27.4408 0.699405 27.2399 0.56828 27.0188 0.478883C26.7977 0.389485 26.5607 0.343567 26.3214 0.343751H4.4643C3.49815 0.343751 2.57158 0.719084 1.88841 1.38718C1.20524 2.05528 0.821442 2.96142 0.821442 3.90625V19.9375C0.821442 20.4099 1.01334 20.863 1.35493 21.197C1.69651 21.5311 2.1598 21.7187 2.64287 21.7187ZM28.1429 6.42449L34.675 12.8125H28.1429V6.42449ZM43.625 41.3125C43.625 41.7849 43.4331 42.238 43.0915 42.572C42.7499 42.9061 42.2867 43.0937 41.8036 43.0937H35.4286C34.9455 43.0937 34.4822 42.9061 34.1406 42.572C33.7991 42.238 33.6072 41.7849 33.6072 41.3125V28.8437C33.6072 28.3713 33.7991 27.9183 34.1406 27.5842C34.4822 27.2502 34.9455 27.0625 35.4286 27.0625C35.9117 27.0625 36.3749 27.2502 36.7165 27.5842C37.0581 27.9183 37.25 28.3713 37.25 28.8437V39.5312H41.8036C42.2867 39.5312 42.7499 39.7189 43.0915 40.053C43.4331 40.387 43.625 40.8401 43.625 41.3125ZM12.6197 38.7096C12.5488 39.3909 12.3243 40.0484 11.9625 40.6347C11.6007 41.221 11.1106 41.7217 10.5274 42.1007C9.34573 42.8711 7.87948 43.0937 6.54528 43.0937C5.38168 43.0878 4.2235 42.9381 3.09823 42.6484C2.6385 42.5168 2.25033 42.2133 2.01778 41.8037C1.78522 41.3941 1.72702 40.9115 1.85577 40.4602C1.98453 40.009 2.28987 39.6255 2.70566 39.3929C3.12145 39.1603 3.61423 39.0972 4.07724 39.2173C5.07448 39.4845 7.48104 39.8185 8.52836 39.1371C8.73099 39.0058 8.94501 38.7987 9.01559 38.2621C9.09528 37.6676 8.85394 37.3492 6.10586 36.5721C3.97707 35.971 0.413897 34.9623 0.869254 31.4266C0.940126 30.7587 1.16045 30.1142 1.51458 29.5389C1.86871 28.9637 2.34797 28.4717 2.91836 28.0978C5.61408 26.3166 9.91265 27.3609 10.393 27.4833C10.6245 27.543 10.8416 27.6466 11.0321 27.7883C11.2225 27.93 11.3826 28.1071 11.5031 28.3093C11.6236 28.5115 11.7022 28.7349 11.7344 28.9668C11.7666 29.1987 11.7518 29.4346 11.6908 29.6609C11.6298 29.8872 11.5238 30.0996 11.3789 30.2858C11.234 30.4721 11.053 30.6286 10.8462 30.7465C10.6395 30.8643 10.411 30.9412 10.1739 30.9727C9.93671 31.0042 9.69554 30.9897 9.46412 30.93C8.44184 30.6695 5.99885 30.36 4.95153 31.0547C4.81425 31.1453 4.70122 31.2668 4.62198 31.409C4.54274 31.5512 4.49959 31.71 4.49617 31.8719C4.46885 32.0723 4.4643 32.1123 4.75117 32.2949C5.27711 32.6267 6.21742 32.8916 7.13041 33.1499C9.35939 33.78 13.1297 34.8555 12.6197 38.7096ZM28.7849 39.4288C29.5617 38.105 29.9685 36.6045 29.9643 35.0781C29.9643 30.6584 26.6971 27.0625 22.6786 27.0625C18.6601 27.0625 15.3929 30.6584 15.3929 35.0781C15.3929 39.4978 18.6601 43.0937 22.6786 43.0937C23.9652 43.0893 25.2228 42.7195 26.2987 42.0294L26.8542 42.5727C27.196 42.9067 27.6594 43.0942 28.1425 43.094C28.6257 43.0937 29.0889 42.9059 29.4304 42.5716C29.7719 42.2374 29.9636 41.7842 29.9634 41.3117C29.9632 40.8392 29.771 40.3862 29.4293 40.0523L28.7849 39.4288ZM22.6786 39.5312C20.6705 39.5312 19.0357 37.5273 19.0357 35.0781C19.0357 32.6289 20.6705 30.625 22.6786 30.625C24.6867 30.625 26.3214 32.6289 26.3214 35.0781C26.3217 35.6458 26.2311 36.21 26.0528 36.7503L25.7864 36.4898C25.6172 36.3244 25.4163 36.1933 25.1952 36.1038C24.9742 36.0144 24.7373 35.9684 24.4981 35.9685C24.0149 35.9688 23.5517 36.1566 23.2102 36.4909C22.8687 36.8251 22.677 37.2783 22.6772 37.7508C22.6775 38.2233 22.8696 38.6763 23.2114 39.0102L23.5939 39.3821C23.2987 39.4788 22.9898 39.5291 22.6786 39.5312Z" fill="#E6E2D7"/>
</svg>
